<?xml version="1.0" standalone="no"?>
<!DOCTYPE svg PUBLIC "-//W3C//DTD SVG 20010904//EN"
 "http://www.w3.org/TR/2001/REC-SVG-20010904/DTD/svg10.dtd">
<svg version="1.0" xmlns="http://www.w3.org/2000/svg"
 width="825.000000pt" height="825.000000pt" viewBox="0 0 825.000000 825.000000"
 preserveAspectRatio="xMidYMid meet">
<metadata>
Created by potrace 1.14, written by Peter Selinger 2001-2017
</metadata>
<g transform="translate(0.000000,825.000000) scale(0.100000,-0.100000)"
fill="#000000" stroke="none">
<path d="M3295 6564 c-380 -41 -683 -133 -980 -297 -201 -111 -351 -223 -519
-386 -211 -206 -361 -412 -490 -671 -84 -170 -135 -306 -181 -485 -73 -284
-70 -219 -70 -1595 l0 -1235 27 -51 c30 -56 77 -102 141 -136 l42 -23 2050 0
c1924 0 2057 1 2165 18 275 43 507 117 750 238 726 364 1212 1033 1337 1839
25 163 25 529 -1 695 -40 262 -109 481 -226 720 -265 542 -729 970 -1298 1199
-185 75 -351 120 -562 153 -161 25 -538 25 -700 0 -126 -20 -325 -66 -413 -96
-56 -20 -58 -20 -113 -1 -86 30 -288 78 -399 95 -97 16 -474 28 -560 19z
m2013 -755 c774 -85 1386 -665 1513 -1434 20 -119 17 -407 -5 -530 -136 -753
-745 -1319 -1511 -1405 -746 -83 -1487 365 -1765 1067 -84 214 -115 380 -114
623 0 194 16 306 65 473 231 776 1012 1295 1817 1206z m-1979 -18 c-8 -10 -45
-54 -82 -97 -290 -337 -482 -762 -554 -1224 -25 -163 -25 -529 1 -695 24 -153
74 -354 121 -480 101 -273 278 -571 461 -775 27 -30 55 -63 63 -72 13 -17 -25
-18 -763 -18 l-776 0 0 885 c0 560 4 921 11 983 44 402 205 738 489 1022 263
263 581 423 960 483 14 2 38 5 54 6 26 1 27 -1 15 -18z"/>
</g>
</svg>
